<svg width="37" height="37" viewBox="0 0 37 37" fill="none" xmlns="http://www.w3.org/2000/svg">
<path fill-rule="evenodd" clip-rule="evenodd" d="M16.6208 24.3403C16.6208 23.0345 16.7881 22.0765 17.3016 20.9996C17.4874 20.6099 17.7334 20.218 17.9614 19.8958C21.085 15.482 27.907 16.0429 30.309 20.9523C31.2248 22.824 31.275 25.3145 30.3315 27.1863C29.7486 28.3426 29.3409 28.8361 28.4185 29.6473C26.107 31.6802 22.4602 31.8744 19.7805 30.0698C19.1464 29.6428 18.8538 29.3604 18.4002 28.8398C17.3618 27.6478 16.6208 26.0378 16.6208 24.3403ZM15.4215 24.058C15.4215 28.57 19.2089 32.4534 23.3936 32.4534C25.9753 32.4534 27.2831 32.0051 29.2094 30.5088C29.691 30.1348 30.2886 29.4092 30.378 29.3492L33.923 32.8591C34.3546 33.2906 35.4861 34.0935 34.7047 34.8752C33.9181 35.662 33.3287 34.8751 32.7943 34.3406L30.6072 32.1536C30.3491 31.8954 29.7964 31.1835 29.3903 31.1835C29.049 31.1835 28.8259 31.4066 28.8259 31.7479C28.8259 32.0983 29.1049 32.2752 29.3019 32.4712L32.3005 35.4694C33.0243 36.1939 33.1617 36.3336 34.2583 36.3336C34.7219 36.3336 35.2697 35.9972 35.5129 35.754C36.2167 35.0501 36.368 33.8934 35.7524 33.0758C35.3247 32.5078 31.4572 28.9198 31.0834 28.3615C31.1642 28.0155 31.6119 27.3743 31.8463 26.5141C32.5423 23.9607 32.1914 21.5775 30.8023 19.4713C30.2323 18.6073 29.6067 17.9613 28.7664 17.3448C25.1871 14.7189 20.2981 15.3182 17.3479 18.7883C16.1783 20.1641 15.4215 22.1676 15.4215 24.058Z" fill="#FEFEFE"/>
<path fill-rule="evenodd" clip-rule="evenodd" d="M1.52324 11.5707C1.52324 9.8114 4.34516 9.8114 4.34516 11.5707C4.34516 13.5366 1.52324 13.5379 1.52324 11.5707ZM11.0474 9.5954C11.0474 7.69301 13.8694 7.71673 13.8694 9.5954C13.8694 11.3995 11.0474 11.4098 11.0474 9.5954ZM21.2065 4.86842C19.1562 4.86842 19.3262 2.04642 21.136 2.04642C21.4865 2.04642 21.8946 2.25056 22.0942 2.42883C22.9735 3.21501 22.4751 4.86842 21.2065 4.86842ZM18.5257 3.45753C18.5257 3.69724 18.6601 4.28423 18.7373 4.44504L15.3376 6.83052C14.9341 7.10386 14.5725 7.39725 14.1516 7.61994C13.4524 7.15172 13.3235 6.98509 12.3173 6.98509C10.9896 6.98509 9.87694 8.22568 9.84797 9.5247L6.43408 10.2731C6.07544 10.3551 5.60869 10.4835 5.26233 10.5124C5.04273 10.0972 4.77183 9.76527 4.37624 9.49365C1.82326 7.74065 -1.09861 11.2941 1.11542 13.4599C1.40038 13.7388 1.85652 14.054 2.32866 14.1521C4.01902 14.5028 5.40019 13.376 5.54451 11.6411L10.1302 10.6534C10.3114 11.3322 11.3596 12.135 12.3173 12.135C13.8196 12.135 14.8227 11.2255 15.0064 9.88082C15.1081 9.13624 14.8976 9.02393 14.8571 8.53718C15.1083 8.46992 15.2367 8.31643 15.4217 8.18451L17.1254 6.99565C17.3209 6.85057 17.4599 6.75831 17.6658 6.61883C17.8804 6.47354 18.0331 6.34722 18.2434 6.20882C18.5264 6.02279 19.14 5.51383 19.4428 5.43299C19.7705 5.65223 19.6626 5.63822 20.1475 5.85702C21.1113 6.29203 22.2216 5.99951 22.8838 5.34634C24.7306 3.52392 23.1735 0.917701 21.3476 0.917701H20.9243C19.6582 0.917701 18.5257 2.17856 18.5257 3.45753Z" fill="#FEFEFE"/>
<path fill-rule="evenodd" clip-rule="evenodd" d="M8.01366 17.3558H10.3419C10.5044 17.3558 10.5535 17.4048 10.5535 17.5674V29.1376H8.01366V17.3558ZM6.81439 17.4969V29.702C6.81439 30.0861 7.06525 30.3369 7.44931 30.3369H11.1178C11.5653 30.3369 11.7528 29.9337 11.7528 29.4904V17.9907C11.7528 15.7663 10.367 16.1565 8.15488 16.1565C7.43383 16.1565 6.81439 16.7758 6.81439 17.4969Z" fill="#FEFEFE"/>
<path fill-rule="evenodd" clip-rule="evenodd" d="M19.725 20.4599C19.725 20.8011 19.9482 21.0243 20.2894 21.0243C20.5872 21.0243 20.855 20.7452 21.0487 20.5842C23.3218 18.6957 26.8354 19.7261 27.9007 22.2317C28.0169 22.5048 28.1213 22.7732 28.1874 23.0736C28.2334 23.2813 28.3232 23.8599 28.3288 24.062C28.3334 24.2275 28.2379 24.8596 28.2118 24.996C28.1504 25.3187 28.0639 25.5791 27.9507 25.8638C26.764 28.8548 22.2621 29.7631 20.0908 26.5846C19.4885 25.7029 19.1742 24.3946 19.4119 23.251C19.4636 23.0025 19.725 22.2484 19.725 22.1531C19.725 21.8913 18.9409 20.8285 18.41 22.4608C17.9901 23.7519 18.1303 25.371 18.7115 26.553C18.845 26.8243 19.0518 27.1575 19.2198 27.3851C19.8782 28.277 20.5343 28.7643 21.5113 29.256C23.6008 30.3075 26.2372 29.6533 27.7149 28.1675C28.9919 26.8834 29.4608 25.7622 29.4608 23.8463C29.4608 19.7964 24.4825 16.8707 20.7822 19.33C20.4673 19.5392 19.725 19.9943 19.725 20.4599Z" fill="#FEFEFE"/>
<path fill-rule="evenodd" clip-rule="evenodd" d="M1.52323 19.2606C2.15991 19.1123 3.16163 19.1901 3.85128 19.1901C4.01388 19.1901 4.06297 19.2392 4.06297 19.4017V29.1376H1.52323V19.2606ZM0.323792 19.5428V29.5609C0.323792 30.0011 0.525719 30.3369 0.958792 30.3369H4.62741C4.97611 30.3369 5.26232 30.0506 5.26232 29.702V19.4017C5.26232 18.6982 4.70101 18.0613 3.99241 18.0613H1.59371C0.879385 18.0613 0.323792 18.7194 0.323792 19.5428Z" fill="#FEFEFE"/>
<path fill-rule="evenodd" clip-rule="evenodd" d="M13.305 14.6749V29.7725C13.305 30.1138 13.5281 30.3369 13.8694 30.3369C14.619 30.3369 16.1424 30.4651 16.4658 30.1819C16.9356 29.7704 16.6401 29.1376 15.9153 29.1376H14.4338V14.9571C14.4338 14.6238 14.9807 14.7452 15.5626 14.7456C16.0329 14.7456 16.5032 14.7456 16.9735 14.7456C17.2843 16.0791 16.5886 17.5675 17.6084 17.5675C17.9497 17.5675 18.173 17.3443 18.173 17.003V14.8159C18.173 14.1653 17.5538 13.5462 16.903 13.5462C15.6702 13.5462 14.3615 13.3505 13.7138 13.8844C13.5485 14.0207 13.305 14.4001 13.305 14.6749Z" fill="#FEFEFE"/>
<path fill-rule="evenodd" clip-rule="evenodd" d="M19.7249 9.73647V15.0983C19.7249 15.8403 20.6629 15.9673 20.8808 15.3369C20.9572 15.1159 20.9256 14.7948 20.9245 14.5342L20.923 10.2291C20.911 9.3338 20.5989 9.52479 23.2524 9.52479C23.6035 9.52479 23.4641 10.5326 23.4641 11.2181C23.4641 11.8529 23.4641 12.488 23.4641 13.1228C23.4641 13.4861 23.2153 15.4737 24.3352 14.9164C24.5885 14.7903 24.6635 14.5934 24.6635 14.2518V9.87746C24.6635 9.09451 24.1586 8.39607 23.3936 8.39607H20.9948C20.2974 8.39607 19.7249 9.04342 19.7249 9.73647Z" fill="#FEFEFE"/>
</svg>
