<svg width="37" height="37" viewBox="0 0 37 37" fill="none" xmlns="http://www.w3.org/2000/svg">
<path fill-rule="evenodd" clip-rule="evenodd" d="M23.1743 31.6139L23.7587 31.4367L23.7646 33.3244L23.1771 33.3332L23.1743 31.6139ZM13.1576 31.5233L14.3339 31.7616L14.3344 33.3409H13.1641L13.1576 31.5233ZM2.54899 16.8264L2.5505 22.0209L1.56908 21.7942C1.40539 21.7159 1.44968 21.766 1.37187 21.6209L1.37339 17.1175L2.54899 16.8264ZM17.129 2.71307C20.166 2.40007 22.6203 4.74287 22.8831 7.43725C23.1886 10.5671 20.9262 13.0017 18.1637 13.2626C15.0521 13.5566 12.5969 11.2629 12.3386 8.49462C12.0446 5.34258 14.3417 3.00043 17.129 2.71307ZM3.73951 16.496C4.01251 16.2491 3.97797 16.3606 4.15093 15.9603C4.4774 15.205 4.72227 14.7921 5.17673 14.1091C5.33649 13.8689 5.42657 13.7888 5.61166 13.5626C6.39437 12.6064 5.92484 13.0563 7.01555 12.1537C7.44778 11.7958 7.82932 11.7368 7.8556 11.0243C7.91108 9.52417 7.8545 6.90911 7.8545 5.32554C9.75579 5.35616 10.4787 6.28849 11.2335 6.71833C11.1821 7.9779 11.0483 8.47845 11.381 9.73392C11.9761 11.9804 13.9267 13.9325 16.5047 14.3636C20.4147 15.0175 23.5322 12.2492 24.0021 8.97016C25.5137 9.20513 28.9701 11.3908 30.0753 12.7277C31.6658 14.652 32.9879 16.7911 32.8866 19.6568C32.8277 21.3168 32.5033 22.258 31.9208 23.5796C30.918 25.8547 28.8524 27.2699 28.6198 27.582C28.3544 27.9381 27.6972 33.3134 27.6372 33.9219L25.5307 33.9309V30.6772C25.5307 30.2146 25.4096 29.8966 24.97 29.872C23.3854 29.7833 22.3037 31.2474 16.8342 30.9139C14.1631 30.751 11.5859 29.3093 11.4007 30.5638C11.3068 31.2007 11.5024 33.5583 11.3636 34.5212C10.8211 34.5212 9.6427 34.6461 9.24028 34.4688C9.07002 34.037 8.82447 31.2727 8.73792 30.5618C8.42071 27.9559 8.7343 28.3411 7.49982 27.3758C7.23836 27.1713 7.15239 27.1325 6.89 26.8608C6.69187 26.6557 6.53229 26.4954 6.32674 26.298C5.484 25.4885 4.67394 24.0894 4.16071 22.9906C3.98142 22.6069 4.02975 22.6538 3.73042 22.3932L3.73951 16.496ZM11.6371 5.47407C10.777 5.24449 10.4903 4.14035 7.28451 4.14035C6.50534 4.14035 6.65145 4.94571 6.65253 5.33374L6.65262 10.9499L5.40502 11.9489C4.58215 12.7558 3.72787 14.0151 3.23739 15.0464C2.99908 15.5475 3.20176 15.3904 2.2856 15.6392C1.84469 15.7589 1.51519 15.8386 1.06587 15.964C0.637509 16.0835 0.193909 16.1159 0.193909 16.6364V22.1825C0.193909 22.6233 0.49823 22.7357 0.869665 22.8407L2.99595 23.4523C3.21187 23.6058 3.82919 25.4901 5.86277 27.5356C7.67624 29.3597 7.17647 27.6806 7.62259 31.3218L8.06569 35.0208C8.11654 35.4217 8.29844 35.7318 8.75879 35.7318H11.7775C12.61 35.7318 12.6199 35.2203 12.6199 34.5384C15.8823 34.5384 15.5685 34.9628 15.5685 32.011C16.3113 32.011 17.2437 32.1514 18.3766 32.1514C20.7003 32.1514 20.4754 31.9237 21.957 31.8005C21.957 34.8467 21.7277 34.5384 23.7822 34.5384C23.7878 34.7936 23.8993 35.1 24.2035 35.1H28.2753C28.5995 35.1 28.728 34.6685 28.7791 34.34C29.0641 32.5095 29.2814 30.317 29.5754 28.6074C29.6614 28.1069 30.0807 27.9218 30.785 27.2196C31.2269 26.7792 31.6044 26.3318 31.968 25.8049C32.1549 25.5338 32.3293 25.3289 32.4847 25.0582C33.3819 23.4956 33.9303 22.1423 34.1021 20.0765C35.1966 20.0765 36.1382 19.1073 36.1382 18.1809V16.2152H34.9446C34.9446 17.5263 35.2393 18.7826 34.0321 18.883C34.0321 16.5416 32.7359 14.1464 31.6856 12.8049L29.5935 10.6848C28.4254 9.66515 27.0155 8.907 25.6057 8.284C25.3516 8.17169 25.1248 8.09431 24.8461 7.99083C23.8197 7.60992 24.1688 7.79466 23.9849 6.74571C23.674 4.97115 22.4418 3.27851 20.9017 2.38735C18.405 0.942829 15.2749 1.23406 13.1989 3.24488L12.8742 3.55206C12.4475 4.01079 11.7793 4.86358 11.6371 5.47407Z" fill="#FEFEFE"/>
<path fill-rule="evenodd" clip-rule="evenodd" d="M17.2117 4.47297C14.4658 4.39256 14.3631 8.29887 16.8297 8.57264C17.387 8.63451 18.2435 8.45063 18.6673 8.76235C19.0475 9.04215 19.1072 9.77616 18.7505 10.1306C18.4263 10.4526 17.6018 10.3925 17.0573 10.3519C16.372 10.3011 16.2398 9.91995 16.24 9.19219L15.0619 9.18206C15.0621 9.92534 15.1116 10.3826 15.5397 10.8381C15.8564 11.1752 16.226 11.5264 16.9203 11.4977L17.2934 11.5447L17.3603 12.1323L18.4533 12.1321L18.4604 11.5231C21.089 10.8206 20.3751 7.72158 18.5112 7.44738C18.0122 7.37387 17.1022 7.48942 16.7217 7.34046C16.2864 7.17016 16.0885 6.53143 16.3509 6.0436C16.6026 5.57581 17.1756 5.64544 17.747 5.64652C18.341 5.6476 18.9047 5.69093 18.9065 6.27706C19.0646 6.40855 19.0116 6.56484 19.0116 6.808L19.0787 6.79485L20.1498 6.83215L20.1379 6.20743C20.0667 5.20999 19.3445 4.7019 18.4594 4.48655L18.4625 3.91982H17.3407C17.3407 3.97759 17.3493 4.24727 17.3417 4.28435C17.2702 4.6299 17.3609 4.3544 17.2117 4.47297Z" fill="#FEFEFE"/>
<path fill-rule="evenodd" clip-rule="evenodd" d="M6.39172 15.9196L7.49498 15.9435C7.50567 15.9259 7.51738 15.8823 7.52109 15.8927C7.59807 16.1075 7.52462 15.0414 8.47843 15.0647C9.28362 15.0844 9.15923 15.8736 9.46071 15.9406L10.5071 15.9385C10.2847 13.2053 6.63322 13.1952 6.39172 15.9196Z" fill="#FEFEFE"/>
<path fill-rule="evenodd" clip-rule="evenodd" d="M29.6082 15.9879L29.7496 16.2233H30.7981L30.7854 15.8992C30.7809 14.9967 30.1253 14.056 29.6974 13.6689C29.132 13.1573 28.3529 12.7398 27.3126 12.7251L27.2975 13.8924C28.0056 13.9758 28.4626 14.1634 28.8778 14.4911C29.149 14.7048 29.6172 15.4159 29.6082 15.9879Z" fill="#FEFEFE"/>
<path fill-rule="evenodd" clip-rule="evenodd" d="M20.1378 6.20743L20.1498 6.83215L19.0787 6.79486L19.0116 6.80801C19.0116 6.56484 19.0645 6.40856 18.9065 6.27706C19.0217 7.16736 18.7535 6.7498 20.234 6.86621C20.2338 6.53833 20.2758 6.46719 20.1378 6.20743Z" fill="#A8920E"/>
<path fill-rule="evenodd" clip-rule="evenodd" d="M17.2117 4.4729C17.3609 4.35434 17.2702 4.62983 17.3417 4.28428C17.3493 4.2472 17.3407 3.97752 17.3407 3.91975H18.4625C18.275 3.82124 17.6796 3.81305 17.2796 3.88548L17.2117 4.4729Z" fill="#534807"/>
<path fill-rule="evenodd" clip-rule="evenodd" d="M29.6082 15.988C29.6163 16.3931 29.675 16.3004 30.099 16.2958C30.3637 16.293 30.5873 16.3191 30.8371 16.2499L30.7854 15.8993L30.7981 16.2233H29.7496L29.6082 15.988Z" fill="#838278"/>
<path fill-rule="evenodd" clip-rule="evenodd" d="M17.3603 12.1323L17.2933 11.5447L16.9203 11.4977L17.242 11.5617C17.242 11.6225 17.2323 11.8961 17.2398 11.9375C17.3 12.2686 17.1937 12.0569 17.3603 12.1323Z" fill="#7D6D0B"/>
</svg>
