<svg width="37" height="37" viewBox="0 0 37 37" fill="none" xmlns="http://www.w3.org/2000/svg">
<path fillRule="evenodd" clipRule="evenodd" d="M15.8205 11.1858H20.0816C20.9264 11.1858 21.7915 12.1037 22.0292 12.7299C22.3249 13.5077 22.888 19.0141 23.065 20.426C23.1601 21.1892 23.5684 22.819 22.4178 23.1609C22.1215 23.2494 21.7909 23.1626 21.4828 23.2037C21.2125 23.2403 20.9951 23.4307 20.905 23.674L20.3643 31.0963C20.3137 31.7333 20.3435 32.3928 20.2506 33.0078L20.1514 34.9339H15.5411L15.3215 31.4517C15.1988 30.3461 15.1452 29.062 15.0562 27.9453C15.0084 27.3522 15.0421 26.7321 14.9633 26.152C14.9024 25.7054 14.8479 24.9028 14.8445 24.3853C14.8316 22.15 13.5998 23.674 12.7877 22.6704C12.4312 22.2294 12.6019 21.8059 12.665 21.2314C12.8141 19.8685 13.4956 13.4767 13.7694 12.9063C14.1241 12.1678 14.8704 11.1858 15.8205 11.1858ZM11.1409 22.3612C11.1409 22.9858 11.4918 23.5174 11.8202 23.8468C12.3501 24.3791 12.4864 24.4055 13.3059 24.5964C13.3059 25.9386 13.5886 27.9503 13.6539 29.2778C13.6792 29.7846 13.7181 30.394 13.7756 30.8322L14.1439 35.4937C14.1524 36.0315 14.3241 36.4708 14.8428 36.4708H20.9895C21.8975 36.4708 21.6388 35.0049 21.7983 33.9269L22.1778 29.2772C22.21 28.0156 22.5266 25.7702 22.5266 24.5964C23.2367 24.4309 23.6371 24.4129 24.2049 23.6205C24.6711 22.97 24.7296 22.4919 24.5922 21.4826C24.4356 20.3348 23.6691 12.7875 23.2952 11.9534C22.749 10.7357 21.5037 9.64884 20.1514 9.64884H15.6808C14.6423 9.64884 13.5413 10.3596 12.9572 11.1858C12.2296 12.2135 12.2296 13.1016 12.055 14.6138L11.1409 22.3612Z" fill="#FEFEFE"/>
<path fillRule="evenodd" clipRule="evenodd" d="M24.831 11.884C24.831 12.2607 25.0771 12.5841 25.3211 12.7233C25.8814 13.0436 25.919 12.6523 26.3679 12.6523H30.4888C31.3753 12.6523 32.1108 13.2086 32.4662 13.9577C32.6904 14.4297 32.8328 16.2217 32.9134 16.8632C33.0424 17.8944 33.1331 18.9071 33.2616 19.8679C33.3336 20.4045 33.369 20.8394 33.4355 21.3704C33.5345 22.1623 33.7459 22.7886 32.8346 23.0302C32.576 23.0989 32.2928 23.0297 32.0297 23.064C31.1794 23.1761 31.4541 24.6009 31.3077 25.6947C31.1563 26.8295 31.0813 29.387 30.9377 30.3534L30.6983 33.4673H26.0885L25.6799 28.0781C25.5226 26.5901 25.8116 25.2948 24.6914 25.2948C23.7526 25.2948 24.0504 26.5885 24.0589 26.696L24.2825 30.1742C24.3676 30.9514 24.4677 34.4625 24.7775 34.7779C24.8778 34.8798 25.1296 35.0043 25.3199 35.0043H31.257C32.1971 35.0043 32.0675 34.2158 32.1154 33.8368C32.4145 31.4663 32.5553 28.71 32.8058 26.3547C32.8312 26.1166 32.8628 25.6975 32.9038 25.4052C32.9607 25.0025 32.8211 24.7012 33.1162 24.5694C33.3774 24.4522 34.3203 24.4709 34.8424 23.2217C35.2737 22.1899 34.8148 19.9473 34.6678 18.6018C34.5411 17.4445 34.381 16.2539 34.2481 15.0397C34.1103 13.7713 33.8201 13.0133 33.0914 12.285C32.4477 11.6419 31.5386 11.1153 30.2794 11.1153C29.3112 11.1153 25.9799 10.9908 25.3384 11.2734C25.1037 11.3766 24.831 11.5855 24.831 11.884Z" fill="#FEFEFE"/>
<path fillRule="evenodd" clipRule="evenodd" d="M4.71483 35.0043H10.652C11.102 35.0043 11.2913 34.7092 11.3504 34.3053C11.5362 33.0308 11.5182 31.2421 11.6697 30.225L11.967 26.1492C11.9136 25.756 11.6281 25.4344 11.1409 25.4344C10.3767 25.4344 10.3957 26.2944 10.3721 27.0412C10.3394 28.0967 10.126 29.2659 10.0934 30.3241L9.91314 32.5188C9.73065 33.754 10.8976 33.4673 5.41323 33.4673L5.06349 28.7877C5.04211 28.3434 4.93512 27.7025 4.92325 27.2514C4.91084 26.7637 4.85962 26.1142 4.80383 25.6947C4.73227 25.1624 4.75819 24.6573 4.7047 24.1172C4.51607 22.2237 3.39185 23.5494 2.72511 22.7441C2.46656 22.4321 2.62313 21.7968 2.67608 21.3704C2.83776 20.0746 3.31753 14.6691 3.69433 14.0068C4.07337 13.3405 4.75654 12.6523 5.76237 12.6523H9.60392C10.0798 12.6523 10.9314 13.2526 10.9314 11.8142C10.9314 11.4132 10.0737 11.1153 9.60392 11.1153C8.05289 11.1153 5.39187 10.9205 4.21526 11.4548C3.85938 11.6165 3.26239 12.0107 3.02018 12.285C2.18162 13.2335 2.09819 14.0191 1.98844 15.3044L1.35594 20.6789C1.16787 22.3008 0.859826 22.641 1.7896 23.8192C2.4587 24.6662 2.75488 24.379 3.05286 24.5818C3.2686 24.7282 3.15311 25.0892 3.18862 25.4243C3.30348 26.5158 3.43696 29.2805 3.5569 30.0848C3.65267 30.7302 3.61096 31.3147 3.70728 31.9602C3.96127 33.6667 3.51803 35.0043 4.71483 35.0043Z" fill="#FEFEFE"/>
<path fillRule="evenodd" clipRule="evenodd" d="M28.6033 8.112H28.2536C27.3614 8.112 26.2981 7.0485 26.2981 6.15654V5.8072C26.2981 4.69281 27.3119 3.71156 28.5335 3.71156C29.6487 3.71156 30.6983 4.72258 30.6983 5.94698C30.6983 7.05935 29.7155 8.112 28.6033 8.112ZM24.7612 5.73761C24.7612 6.91616 25.0309 7.79363 25.8239 8.58664C28.0446 10.8074 32.2353 9.40116 32.2353 5.94698C32.2353 3.81655 30.5982 2.17463 28.3931 2.17463C26.4823 2.17463 24.7612 3.82721 24.7612 5.73761Z" fill="#FEFEFE"/>
<path fillRule="evenodd" clipRule="evenodd" d="M5.41326 5.94685C5.41326 4.72023 6.42135 3.71143 7.64849 3.71143C8.77042 3.71143 9.81347 4.69308 9.81347 5.80707V6.15641C9.81347 7.04836 8.75015 8.11187 7.85801 8.11187H7.50833C6.39489 8.11187 5.41326 7.06867 5.41326 5.94685ZM3.87628 5.94685C3.87628 7.95399 5.53206 9.6488 7.43848 9.6488C8.61777 9.6488 9.4953 9.3789 10.2877 8.5865C12.5033 6.371 11.1139 2.1745 7.64849 2.1745C5.53944 2.1745 3.87628 3.83834 3.87628 5.94685Z" fill="#FEFEFE"/>
<path fillRule="evenodd" clipRule="evenodd" d="M17.9161 6.64543C15.9821 6.64543 14.9893 4.32615 16.2908 2.92437C17.6672 1.44093 20.2528 2.54406 20.1104 4.5154C20.027 5.67042 19.1096 6.64543 17.9161 6.64543ZM14.1444 4.41002C14.1444 5.54653 14.6632 6.49942 15.2433 7.08346C16.6884 8.53774 18.8527 8.53814 20.4804 7.18422C20.9512 6.79285 21.6179 5.66599 21.6179 4.82894C21.6179 3.94021 21.6604 3.5967 21.2569 2.74577C20.7445 1.66376 19.483 0.708059 18.1257 0.708059H18.0649C16.8021 0.716104 16.0953 0.964484 15.2088 1.84236C14.6665 2.37974 14.1444 3.363 14.1444 4.41002Z" fill="#FEFEFE"/>
</svg>
