<svg width="32" height="31" viewBox="0 0 32 31" fill="none" xmlns="http://www.w3.org/2000/svg">
<path fillRule="evenodd" clipRule="evenodd" d="M1.05187 16.2947C1.2384 16.1395 1.42833 15.9886 1.6275 15.85C1.88235 15.6727 2.18871 15.4892 2.50286 15.3994L2.50024 4.21077C2.51381 2.84869 3.36495 1.98723 4.73188 1.98723H27.5958C28.9585 1.98723 29.8249 2.85343 29.8249 4.2163V27.0802C29.8249 28.406 29.0006 29.277 27.6705 29.3113C26.3828 29.3444 25.0944 29.3092 23.8067 29.3092C21.3358 29.3092 18.8649 29.3092 16.3939 29.3092C16.2623 29.7233 16.0492 30.0914 15.7807 30.4406C15.6964 30.5501 15.6082 30.6556 15.5184 30.7603H27.4673C28.4536 30.7603 29.3738 30.6309 30.0957 29.9029C30.7831 29.21 31.2758 28.5544 31.2758 27.5297V3.76681C31.2758 2.15404 29.6581 0.536325 28.0453 0.536325H4.2824C3.13577 0.536325 2.02531 1.35219 1.46218 2.31551C0.855706 3.35306 1.05187 5.56435 1.05187 6.78529C1.05187 9.95517 1.05187 13.1249 1.05187 16.2947ZM18.5721 14.3221C19.1953 13.6941 19.8148 13.0625 20.4387 12.435C20.866 12.0052 21.2944 11.5758 21.7273 11.1516C21.8822 10.9998 22.0378 10.848 22.1961 10.6998C22.2804 10.6208 22.3868 10.5156 22.4823 10.4518L22.9526 10.1368V10.7029C22.9526 11.2308 22.8539 13.6382 23.057 13.9818C23.2086 14.215 23.4727 14.345 23.7499 14.3261C24.2479 14.2921 24.4678 13.8555 24.4678 13.4003V8.3264C24.4678 7.67241 24.1397 7.34433 23.4857 7.34433H18.4118C17.9457 7.34433 17.4934 7.54114 17.4934 8.06959C17.4934 8.30074 17.5347 8.55184 17.7379 8.69239C17.9864 8.86432 18.4361 8.86038 18.7322 8.85959C19.5459 8.85761 20.3597 8.85959 21.1736 8.85959H21.7395L21.4245 9.3298C21.2946 9.52404 21.0172 9.78758 20.851 9.95774C20.5183 10.299 20.1804 10.6358 19.8421 10.9714C19.3362 11.4736 18.8243 11.9704 18.3205 12.4741L16.0082 14.7863C15.8869 14.9078 15.5848 15.1625 15.5056 15.303C15.4376 15.4235 15.4386 15.6436 15.4386 15.7767C15.4386 16.1963 15.9429 16.3735 16.2923 16.3735C16.6318 16.3735 17.7894 15.0491 18.0661 14.7816L18.073 14.7752L18.5721 14.3221ZM1.05187 20.2084V27.5297C1.05187 28.168 1.31706 28.755 1.65711 29.2818C1.92638 29.6991 2.52684 30.1663 2.95688 30.4129C3.21953 30.5636 3.91375 30.7603 4.21824 30.7603H11.6679C12.0075 30.7603 12.5983 30.5704 12.9033 30.4227C13.5658 30.1021 14.1589 29.4626 14.5068 28.8207C14.6454 28.5648 14.8343 27.8856 14.8343 27.5939V20.1442C14.8343 19.35 14.3616 18.5446 13.8146 17.9975C13.5203 17.7033 13.2861 17.4947 12.9072 17.3089C12.6181 17.1672 11.9895 16.9778 11.6679 16.9778H4.2824C2.67142 16.9778 1.05187 18.6001 1.05187 20.2084ZM2.29813 20.8704V26.8677C2.29813 27.3906 2.51535 27.8714 2.79387 28.3029C3.01456 28.6447 3.50637 29.0274 3.85862 29.2295C4.07375 29.3528 4.64244 29.514 4.89188 29.514H10.9943C11.2724 29.514 11.7564 29.3585 12.0063 29.2376C12.549 28.9749 13.0348 28.451 13.3197 27.9252C13.4333 27.7156 13.588 27.1592 13.588 26.9202V20.8178C13.588 20.1672 13.2009 19.5075 12.7527 19.0593C12.5117 18.8183 12.3198 18.6475 12.0095 18.4953C11.7727 18.3792 11.2577 18.2241 10.9943 18.2241H4.94441C3.62481 18.2241 2.29813 19.553 2.29813 20.8704Z" fill="#FEFEFE"/>
</svg>
