<svg width="37" height="37" viewBox="0 0 37 37" fill="none" xmlns="http://www.w3.org/2000/svg">
<path fill-rule="evenodd" clip-rule="evenodd" d="M20.099 27.8067C19.2882 27.8067 19.5468 27.6311 18.8277 27.2505C18.959 26.6869 19.4864 26.1009 19.5428 25.4229C20.1384 25.738 20.973 26.1601 20.973 26.9326C20.973 27.3366 20.503 27.8067 20.099 27.8067ZM16.6027 28.2834C16.4471 28.2834 16.1188 28.0911 16.0223 27.9899C15.4842 27.4261 16.1059 26.3298 16.4435 25.661C16.9156 24.7259 16.9536 24.231 17.6358 24.231C18.0637 24.231 18.4304 24.5937 18.4304 25.0256C18.4304 25.4321 18.2522 25.7058 18.1126 25.9792C17.9657 26.2664 17.8576 26.5675 17.7164 26.8544C17.4426 27.4104 17.1429 28.2834 16.6027 28.2834ZM14.2189 26.6943C12.4672 26.6943 14.1644 23.9653 14.5892 23.0915C15.1676 21.9021 16.126 22.3445 16.126 23.3569C16.126 23.8618 15.2356 25.5337 14.9626 26.087C14.8041 26.4081 14.6602 26.6943 14.2189 26.6943ZM11.5968 25.9792C9.81181 25.9792 11.1749 23.7446 11.3859 23.305L12.0736 21.8472C12.3438 21.3061 12.4963 20.7347 13.1859 20.7347C13.8542 20.7347 13.8217 21.3054 13.8217 21.6883C13.8217 22.2505 12.6477 24.3627 12.358 25.0717C12.2318 25.3805 11.9524 25.9792 11.5968 25.9792ZM9.45137 23.5158C9.05364 23.5158 8.73617 23.2066 8.73617 22.7213C8.73617 22.1929 9.3263 21.0643 9.53081 20.6553C9.78004 20.1571 10.1428 19.0661 10.8022 19.0661C12.3138 19.0661 11.0283 21.3751 10.7503 21.9542C10.5031 22.4692 10.1094 23.5158 9.45137 23.5158ZM8.41837 20.1786C8.41837 19.9753 8.54421 20.1658 8.46564 20.1786C8.46468 20.1787 8.41837 20.4003 8.41837 20.1786ZM15.8876 16.2055C14.8055 16.2055 13.969 15.107 13.5833 14.3779C14.8994 14.0713 17.6207 11.6404 19.462 10.7214C22.5662 9.17198 24.8779 12.7888 26.1379 12.7888C26.7829 12.7888 28.05 12.3795 28.5218 12.1531C28.5316 12.5898 29.4987 15.9775 29.6818 16.7142C29.8024 17.1991 30.0316 17.7783 30.0316 18.2715C29.3987 18.2856 28.7315 18.6687 28.1244 18.6687L21.7339 14.2528C19.8357 12.9766 17.6984 16.2055 15.8876 16.2055ZM12.153 14.1396C12.153 14.4092 13.7201 17.318 15.4904 17.318C17.0074 17.318 17.1991 17.0991 18.5352 16.3104C20.8215 14.9604 20.2442 14.505 22.5845 16.2626L27.0766 19.3989C28.3992 20.2825 27.5212 22.0955 26.2614 21.1676C26.0444 21.0079 25.9117 20.9387 25.6947 20.7807C25.3801 20.5518 22.4029 18.4305 22.2444 18.4305C21.7596 18.4305 21.5293 18.4919 21.5293 19.0661C21.5293 19.3982 23.7056 20.8115 24.0721 21.0526C24.6538 21.4353 26.4558 22.5249 26.4558 23.2775C26.4558 23.9341 26.1117 24.231 25.5818 24.231C25.0583 24.231 22.0579 22.0322 21.2002 21.3816C21.0514 21.2685 20.6676 20.9671 20.4639 20.9261C20.0172 20.8363 19.3124 21.4408 20.1875 22.0765L23.8134 24.6486C24.6609 25.3599 24.0981 26.2175 22.9596 26.2175C22.5892 26.2175 20.717 24.8036 20.3039 24.5029C19.2941 23.7681 18.4508 23.0391 17.3179 23.0391C17.273 22.4997 16.9558 21.9439 16.6179 21.6732C16.3114 21.4277 15.5147 21.0505 15.0136 21.291C14.9261 20.2402 13.9892 19.3241 12.7092 19.6224C12.6192 18.5395 11.6425 17.7003 10.4902 17.954C9.14604 18.25 9.05118 19.1305 8.62961 19.8336C8.5342 19.9928 8.58959 19.9141 8.49782 20.0197C8.49782 18.3154 7.9435 18.9555 6.35245 18.192C6.36182 17.7718 6.59183 17.1582 6.70219 16.7142L7.86214 12.312C8.26018 12.503 9.22357 12.7888 9.76924 12.7888C10.8316 12.7888 12.5368 10.3338 14.9341 10.3334C15.7789 10.3332 16.4995 10.7836 16.9206 10.8817C16.5155 11.4348 14.1952 12.8018 13.3194 13.24C12.8975 13.4511 12.153 13.5533 12.153 14.1396ZM29.0779 9.76926L32.4153 8.89517C32.5972 9.67576 32.8467 10.5047 33.0515 11.2785L34.9581 18.6687L31.6207 19.5428C31.0866 17.2504 30.3021 14.6053 29.6966 12.2495L29.0779 9.76926ZM4.76324 19.5428L3.12268 19.1175C2.54001 18.9474 1.99523 18.8014 1.4259 18.6687C1.43448 18.2836 1.90553 16.7558 2.03027 16.2537C2.24136 15.4043 2.42544 14.6273 2.66921 13.7937L3.96866 8.89517C4.2732 8.9206 4.50947 9.01822 4.79676 9.09998C5.11242 9.19008 5.31365 9.22466 5.62098 9.30886C6.12428 9.44687 6.77789 9.64629 7.306 9.76926L4.76324 19.5428ZM0.234009 18.7483C0.234009 19.7119 1.48875 19.8985 2.1724 20.0678C2.64179 20.1839 3.01773 20.3002 3.42817 20.4011C4.22869 20.5979 5.0572 21.0783 5.65346 20.2742C5.91294 19.9243 5.87027 19.647 6.03457 19.3045C6.24304 19.4045 7.04151 19.6798 7.306 19.7018L7.22647 20.8937C7.22647 21.3326 7.63595 21.6568 7.67814 21.8645C7.71928 22.0673 7.26461 23.278 8.11654 24.1355C8.54517 24.5669 8.96036 24.6284 9.53081 24.6284C9.53081 25.4944 9.55241 26.3052 10.535 26.8821C11.5309 27.4668 12.1066 26.9566 12.5503 26.8532C12.6572 27.2534 12.984 27.4776 13.3291 27.6636C13.8785 27.9596 14.1279 27.8194 14.6957 27.8067C14.8494 29.6539 17.8166 29.9866 18.2715 28.2834C19.0083 28.6733 19.0455 28.9986 20.099 28.9986C21.0005 28.9986 22.0661 28.0433 22.0856 27.171C22.4116 27.247 22.603 27.4094 23.0391 27.4094C24.1772 27.4094 25.3435 26.5511 25.3435 25.4229C26.1802 25.4229 26.8724 25.2408 27.306 24.4455C27.6479 23.8184 27.7394 23.1709 27.4093 22.4829C28.3115 22.4078 29.314 20.8562 28.7602 19.7018C29.3584 19.6885 29.7881 19.3839 30.4288 19.3839C30.4445 20.0839 30.9682 20.7347 31.5412 20.7347L35.5034 19.6909C36.5982 19.166 35.9846 17.9277 35.7993 17.1918L33.8923 9.96089C33.3485 7.7989 33.3192 7.36324 31.1346 8.01165C29.5862 8.47131 27.886 8.51809 27.886 9.76926C27.886 10.0342 28.1175 10.8607 28.2039 11.0406L26.3429 11.6457C26.0433 11.6849 25.7922 11.3971 25.5589 11.2226C25.2774 11.0119 25.1358 10.8727 24.8354 10.6745C23.1257 9.5461 21.3961 8.68751 19.2466 9.55261C19.0023 9.65096 18.0319 10.1666 17.9536 10.1666C17.8475 10.1666 16.8848 9.62172 16.6724 9.54077C14.6668 8.77598 12.9819 9.40428 11.3102 10.5158C9.79808 11.5213 10.1152 11.8408 9.08494 11.487C8.75911 11.3752 8.44975 11.329 8.18002 11.1996C8.23325 10.5591 8.99055 9.45742 7.91092 8.76703C7.67926 8.61876 4.20335 7.70331 3.96866 7.70331C3.49515 7.70331 3.02886 8.0806 2.88952 8.45178C2.68414 8.99931 0.234009 18.3265 0.234009 18.7483Z" fill="#FEFEFE"/>
<path fill-rule="evenodd" clip-rule="evenodd" d="M4.68374 13.1067C5.26493 13.1067 5.32586 12.6175 5.4471 12.1219C5.52026 11.823 5.7962 10.9126 5.7962 10.7229C5.7962 10.4851 5.50208 10.1667 5.31941 10.1667C4.55774 10.1667 4.56578 10.8839 4.39861 11.5502C4.33552 11.8015 3.77715 13.1067 4.68374 13.1067Z" fill="#FEFEFE"/>
<path fill-rule="evenodd" clip-rule="evenodd" d="M30.5083 10.6433C30.5083 11.2442 30.6822 11.6166 30.8095 12.0901C30.9584 12.6431 31.2078 13.5136 31.8783 12.9668C32.3012 12.622 31.9928 11.9703 31.7705 11.2087C31.6546 10.8123 31.581 10.1665 31.0644 10.1665C30.8396 10.1665 30.5083 10.4188 30.5083 10.6433Z" fill="#FEFEFE"/>
</svg>
