<svg width="25" height="25" viewBox="0 0 25 25" fill="none" xmlns="http://www.w3.org/2000/svg">
<path d="M12.5 0.390625C5.8252 0.390625 0.390625 5.82031 0.390625 12.5C0.390625 19.1748 5.8252 24.6094 12.5 24.6094C19.1748 24.6094 24.6094 19.1748 24.6094 12.5C24.6094 5.82031 19.1748 0.390625 12.5 0.390625ZM1.61133 12.5C1.61133 10.9229 1.94824 9.42383 2.55371 8.07129L7.74902 22.2998C4.11621 20.5322 1.61133 16.8066 1.61133 12.5ZM12.5 23.3887C11.4307 23.3887 10.4004 23.2324 9.42383 22.9443L12.6904 13.4521L16.0352 22.6221C16.0596 22.6758 16.084 22.7246 16.1133 22.7734C14.9854 23.1689 13.7695 23.3887 12.5 23.3887ZM13.999 7.39746C14.6533 7.36328 15.2441 7.29492 15.2441 7.29492C15.8301 7.22656 15.7617 6.3623 15.1758 6.39648C15.1758 6.39648 13.4131 6.5332 12.2754 6.5332C11.2061 6.5332 9.40918 6.39648 9.40918 6.39648C8.82324 6.3623 8.75488 7.26074 9.34082 7.29492C9.34082 7.29492 9.89746 7.36328 10.4834 7.39746L12.1777 12.0459L9.79492 19.1895L5.83008 7.39746C6.48438 7.36328 7.07519 7.29492 7.07519 7.29492C7.66113 7.22656 7.59277 6.3623 7.00684 6.39648C7.00684 6.39648 5.24414 6.5332 4.10645 6.5332C3.90137 6.5332 3.66211 6.52832 3.40332 6.51855C5.35156 3.56445 8.69629 1.61133 12.5 1.61133C15.332 1.61133 17.915 2.69531 19.8535 4.46777C19.8047 4.46289 19.7607 4.45801 19.7119 4.45801C18.6426 4.45801 17.8857 5.39062 17.8857 6.3916C17.8857 7.29004 18.4033 8.04688 18.9551 8.94531C19.3701 9.66797 19.8535 10.6006 19.8535 11.9482C19.8535 12.8809 19.4971 13.96 19.0234 15.4687L17.9395 19.0967L13.999 7.39746ZM17.9736 21.9092L21.2988 12.2949C21.9189 10.7422 22.1289 9.50195 22.1289 8.39355C22.1289 7.99316 22.1045 7.62207 22.0557 7.27539C22.9053 8.82812 23.3887 10.6055 23.3887 12.5C23.3887 16.5186 21.2109 20.0244 17.9736 21.9092Z" fill="white"/>
</svg>
