<svg width="26" height="25" viewBox="0 0 26 25" fill="none" xmlns="http://www.w3.org/2000/svg">
<path d="M15.1665 2.08301L23.9582 10.8747" stroke="#0037B1" stroke-width="2" stroke-linecap="round" stroke-linejoin="round"/>
<path d="M21.8748 4.16699C22.378 3.66383 22.782 3.06563 23.0651 2.40973C23.1363 2.25556 23.2363 2.11634 23.3598 2.00033C23.6363 1.74048 23.9769 1.52965 24.3533 1.38517C24.4533 1.34933 24.5568 1.32165 24.6618 1.30346C24.7533 1.28767 24.8456 1.28207 24.9382 1.28699C24.9618 1.28817 24.9853 1.29052 25.0086 1.29404C25.0102 1.29404 25.0118 1.29463 25.0126 1.29463L24.9998 1.30746C24.9998 1.30746 24.9998 1.30805 24.999 1.30864C24.9959 1.31216 24.9922 1.31627 24.9879 1.32096C24.9715 1.33693 24.9523 1.35522 24.9309 1.37528C24.8823 1.42038 24.8259 1.47463 24.7632 1.53546C24.6359 1.65852 24.4915 1.80477 24.3332 1.96864C22.4165 3.8853 20.5207 5.78114 18.6248 7.67699C18.079 8.22283 17.5332 8.76866 16.9873 9.3145C16.9332 9.36866 16.8782 9.42224 16.8223 9.4764C16.5357 9.76866 16.249 10.0609 15.9623 10.3532C15.104 11.2228 14.2482 12.0895 13.3898 12.9587C12.5307 13.8288 11.674 14.6961 10.8123 15.5628C10.7998 15.5753 10.7907 15.5853 10.7798 15.5972L15.1665 2.08301L21.8748 4.16699Z" stroke="#0037B1" stroke-width="2" stroke-linecap="round" stroke-linejoin="round"/>
<path d="M9.375 10.417L1.04167 18.7503V23.9587H6.25L14.5833 15.6253" stroke="#0037B1" stroke-width="2" stroke-linecap="round" stroke-linejoin="round"/>
</svg>